<svg width="267" height="92" viewBox="0 0 267 92" fill="none" xmlns="http://www.w3.org/2000/svg">
<path d="M0 68.7426V22.175L9.71475 17.1856V62.6444L14.2864 65.4163V14.4138L24.5726 8.31563V69.8513L29.7157 72.6232V5.54375L40.0019 0V90.9176L0 68.7426Z" fill="white"/>
<path fill-rule="evenodd" clip-rule="evenodd" d="M81.6039 68.0406L46.4022 89.294V1.62353L81.6039 23.4083V68.0406ZM57.0027 20.4823V68.8117L71.0034 59.5675V29.7265L57.0027 20.4823Z" fill="#FEB222"/>
<path d="M114.11 8.35467C115.439 8.35467 116.782 8.4694 118.138 8.69886C119.524 8.89964 120.626 9.17212 121.446 9.51631C121.7 9.60236 121.856 9.71708 121.912 9.8605C121.997 9.97523 122.054 10.1903 122.082 10.5058L122.633 16.4861C122.633 16.5722 122.562 16.6295 122.421 16.6582C122.28 16.6869 122.181 16.6439 122.124 16.5291C121.333 14.1772 120.202 12.3845 118.732 11.1512C117.262 9.88918 115.495 9.25817 113.432 9.25817C111.51 9.25817 109.785 9.78879 108.259 10.85C106.761 11.8826 105.573 13.3741 104.697 15.3245C103.849 17.2749 103.425 19.5551 103.425 22.1652C103.425 24.804 103.863 27.1273 104.739 29.135C105.644 31.1141 106.874 32.6486 108.428 33.7385C110.011 34.7998 111.821 35.3304 113.856 35.3304C115.806 35.3304 117.446 34.7998 118.774 33.7385C120.103 32.6486 121.361 30.8703 122.548 28.4036C122.577 28.3176 122.661 28.2889 122.803 28.3176C122.944 28.3463 123.015 28.4036 123.015 28.4897L122.379 33.8246C122.322 34.1688 122.266 34.3982 122.209 34.513C122.152 34.599 121.997 34.6994 121.743 34.8141C119.142 35.7606 116.513 36.2339 113.856 36.2339C110.831 36.2339 108.117 35.6602 105.715 34.513C103.34 33.337 101.474 31.7021 100.118 29.6083C98.7607 27.5145 98.0823 25.1338 98.0823 22.4664C98.0823 19.7416 98.7749 17.3179 100.16 15.1954C101.573 13.0442 103.496 11.3663 105.927 10.1617C108.386 8.957 111.114 8.35467 114.11 8.35467Z" fill="white"/>
<path d="M134.491 32.2327C134.491 33.1219 134.562 33.7672 134.703 34.1688C134.845 34.5703 135.113 34.8428 135.509 34.9862C135.933 35.1296 136.597 35.2013 137.502 35.2013C137.587 35.2013 137.629 35.2874 137.629 35.4595C137.629 35.6316 137.587 35.7176 137.502 35.7176C136.569 35.7176 135.834 35.7033 135.297 35.6746L132.074 35.6316L128.937 35.6746C128.371 35.7033 127.608 35.7176 126.647 35.7176C126.59 35.7176 126.562 35.6316 126.562 35.4595C126.562 35.2874 126.59 35.2013 126.647 35.2013C127.552 35.2013 128.216 35.1296 128.64 34.9862C129.064 34.8428 129.347 34.5703 129.488 34.1688C129.658 33.7385 129.742 33.0932 129.742 32.2327V12.3128C129.742 11.4524 129.658 10.8214 129.488 10.4198C129.347 10.0182 129.064 9.74577 128.64 9.60235C128.216 9.43026 127.552 9.34421 126.647 9.34421C126.59 9.34421 126.562 9.25817 126.562 9.08607C126.562 8.91398 126.59 8.82793 126.647 8.82793L128.937 8.87096C130.237 8.92832 131.283 8.957 132.074 8.957C132.951 8.957 134.039 8.92832 135.339 8.87096L137.502 8.82793C137.587 8.82793 137.629 8.91398 137.629 9.08607C137.629 9.25817 137.587 9.34421 137.502 9.34421C136.626 9.34421 135.975 9.43026 135.551 9.60235C135.127 9.77445 134.845 10.0756 134.703 10.5058C134.562 10.9074 134.491 11.5384 134.491 12.3989V32.2327Z" fill="white"/>
<path d="M148.772 9.81747C145.408 9.81747 142.991 12.0404 141.522 16.4861C141.493 16.5722 141.408 16.6152 141.267 16.6152C141.126 16.5865 141.055 16.5291 141.055 16.4431C141.168 15.2958 141.295 13.8187 141.437 12.0117C141.578 10.176 141.649 8.79925 141.649 7.88142C141.649 7.738 141.719 7.6663 141.861 7.6663C142.03 7.6663 142.115 7.738 142.115 7.88142C142.115 8.51243 142.921 8.82793 144.532 8.82793C146.963 8.91398 149.804 8.957 153.055 8.957C154.723 8.957 156.489 8.92832 158.355 8.87096L161.238 8.82793C162.313 8.82793 163.09 8.75623 163.571 8.61281C164.079 8.4694 164.404 8.18258 164.546 7.75234C164.574 7.63762 164.659 7.58025 164.8 7.58025C164.97 7.58025 165.055 7.63762 165.055 7.75234C164.97 8.61281 164.871 9.98957 164.758 11.8826C164.673 13.7756 164.631 15.2958 164.631 16.4431C164.631 16.5291 164.56 16.5722 164.419 16.5722C164.277 16.5722 164.192 16.5291 164.164 16.4431C163.74 14.2345 162.949 12.5853 161.79 11.4954C160.631 10.3768 159.203 9.81747 157.507 9.81747C156.687 9.81747 156.136 10.0039 155.853 10.3768C155.599 10.721 155.472 11.395 155.472 12.3989V32.2327C155.472 33.1219 155.557 33.7672 155.726 34.1688C155.896 34.5703 156.221 34.8428 156.701 34.9862C157.182 35.1296 157.945 35.2013 158.991 35.2013C159.076 35.2013 159.118 35.2874 159.118 35.4595C159.118 35.6316 159.076 35.7176 158.991 35.7176C157.973 35.7176 157.168 35.7033 156.574 35.6746L153.055 35.6316L149.62 35.6746C149.027 35.7033 148.207 35.7176 147.161 35.7176C147.076 35.7176 147.034 35.6316 147.034 35.4595C147.034 35.2874 147.076 35.2013 147.161 35.2013C148.179 35.2013 148.928 35.1296 149.408 34.9862C149.917 34.8428 150.256 34.5703 150.426 34.1688C150.624 33.7385 150.723 33.0932 150.723 32.2327V12.3128C150.723 11.3376 150.596 10.6779 150.341 10.3338C150.087 9.98957 149.564 9.81747 148.772 9.81747Z" fill="white"/>
<path d="M176.231 32.2327C176.231 33.1219 176.302 33.7672 176.443 34.1688C176.584 34.5703 176.853 34.8428 177.249 34.9862C177.673 35.1296 178.337 35.2013 179.241 35.2013C179.326 35.2013 179.369 35.2874 179.369 35.4595C179.369 35.6316 179.326 35.7176 179.241 35.7176C178.309 35.7176 177.574 35.7033 177.037 35.6746L173.814 35.6316L170.676 35.6746C170.111 35.7033 169.348 35.7176 168.386 35.7176C168.33 35.7176 168.302 35.6316 168.302 35.4595C168.302 35.2874 168.33 35.2013 168.386 35.2013C169.291 35.2013 169.955 35.1296 170.379 34.9862C170.803 34.8428 171.086 34.5703 171.227 34.1688C171.397 33.7385 171.482 33.0932 171.482 32.2327V12.3128C171.482 11.4524 171.397 10.8214 171.227 10.4198C171.086 10.0182 170.803 9.74577 170.379 9.60235C169.955 9.43026 169.291 9.34421 168.386 9.34421C168.33 9.34421 168.302 9.25817 168.302 9.08607C168.302 8.91398 168.33 8.82793 168.386 8.82793L170.676 8.87096C171.977 8.92832 173.022 8.957 173.814 8.957C174.69 8.957 175.779 8.92832 177.079 8.87096L179.241 8.82793C179.326 8.82793 179.369 8.91398 179.369 9.08607C179.369 9.25817 179.326 9.34421 179.241 9.34421C178.365 9.34421 177.715 9.43026 177.291 9.60235C176.867 9.77445 176.584 10.0756 176.443 10.5058C176.302 10.9074 176.231 11.5384 176.231 12.3989V32.2327Z" fill="white"/>
<path d="M198.526 9.90352C198.611 9.76011 198.639 9.67406 198.611 9.64538C198.611 9.58801 198.512 9.55933 198.314 9.55933C195.091 9.55933 192.632 9.6884 190.936 9.94654C189.268 10.176 187.897 10.6923 186.823 11.4954C185.749 12.2698 184.816 13.4888 184.024 15.1524C183.996 15.1811 183.939 15.1954 183.855 15.1954C183.6 15.1954 183.487 15.138 183.515 15.0233L185.211 7.53723C185.211 7.50854 185.268 7.4942 185.381 7.4942C185.664 7.4942 185.777 7.53723 185.72 7.62327C185.692 7.70932 185.678 7.82405 185.678 7.96746C185.678 8.31165 185.833 8.54111 186.144 8.65584C186.484 8.77057 187.148 8.82793 188.137 8.82793H203.614C203.755 8.82793 203.854 8.89964 203.911 9.04305C203.996 9.18646 203.996 9.30119 203.911 9.38724L189.24 34.556C189.127 34.6994 189.084 34.7998 189.112 34.8571C189.141 34.8858 189.24 34.9002 189.409 34.9002H197.975C198.992 34.9002 199.982 34.642 200.943 34.1257C201.904 33.5808 202.724 32.8637 203.402 31.9746C204.08 31.0854 204.504 30.1389 204.674 29.135C204.702 29.049 204.787 29.0059 204.928 29.0059C205.07 29.0059 205.14 29.049 205.14 29.135L204.547 35.3734C204.547 35.4595 204.504 35.5599 204.42 35.6746C204.363 35.7606 204.278 35.8037 204.165 35.8037C199.953 35.7463 193.183 35.7176 183.855 35.7176C183.742 35.7176 183.657 35.6603 183.6 35.5455C183.544 35.4021 183.558 35.273 183.643 35.1583L198.526 9.90352Z" fill="white"/>
<path d="M227.803 28.8769C227.803 28.8195 227.86 28.7908 227.973 28.7908C228.057 28.7908 228.128 28.8195 228.185 28.8769C228.269 28.9056 228.312 28.9342 228.312 28.9629C228.029 31.2001 227.888 33.2366 227.888 35.0723C227.888 35.3017 227.845 35.4738 227.761 35.5885C227.676 35.6746 227.506 35.7176 227.252 35.7176H208.51C208.425 35.7176 208.383 35.6316 208.383 35.4595C208.383 35.2874 208.425 35.2013 208.51 35.2013C209.415 35.2013 210.065 35.1296 210.461 34.9862C210.885 34.8428 211.167 34.5703 211.309 34.1688C211.45 33.7385 211.521 33.0932 211.521 32.2327V12.3128C211.521 11.4524 211.45 10.8214 211.309 10.4198C211.167 10.0182 210.885 9.74577 210.461 9.60235C210.037 9.43026 209.386 9.34421 208.51 9.34421C208.425 9.34421 208.383 9.25817 208.383 9.08607C208.383 8.91398 208.425 8.82793 208.51 8.82793H226.489C226.771 8.82793 226.913 8.957 226.913 9.21514L226.997 14.9373C226.997 14.9946 226.913 15.0377 226.743 15.0663C226.602 15.095 226.517 15.0663 226.489 14.9803C226.036 13.3167 225.273 12.0834 224.199 11.2803C223.125 10.4772 221.711 10.0756 219.959 10.0756H218.687C217.839 10.0756 217.217 10.262 216.821 10.6349C216.425 11.0078 216.227 11.5814 216.227 12.3559V21.1327H219.747C221.386 21.1327 222.644 20.8458 223.52 20.2722C224.397 19.6985 224.835 18.8954 224.835 17.8629C224.835 17.7768 224.906 17.7338 225.047 17.7338C225.216 17.7338 225.301 17.7768 225.301 17.8629L225.259 21.735L225.301 23.8001C225.358 24.7753 225.386 25.5497 225.386 26.1234C225.386 26.1807 225.301 26.2094 225.132 26.2094C224.962 26.2094 224.877 26.1807 224.877 26.1234C224.877 24.9474 224.425 24.0296 223.52 23.3699C222.644 22.6815 221.372 22.3373 219.704 22.3373H216.227V32.0606C216.227 32.8924 216.383 33.5091 216.694 33.9106C217.005 34.3122 217.499 34.513 218.178 34.513H219.577C221.782 34.513 223.549 34.054 224.877 33.1362C226.206 32.2184 227.181 30.7986 227.803 28.8769Z" fill="white"/>
<path d="M260.824 8.82793C260.88 8.82793 260.909 8.91398 260.909 9.08607C260.909 9.25817 260.88 9.34421 260.824 9.34421C259.693 9.34421 258.803 9.80313 258.153 10.721C257.502 11.6101 257.177 12.8148 257.177 14.3349V36.363C257.177 36.449 257.107 36.5064 256.965 36.5351C256.852 36.5637 256.767 36.5494 256.711 36.492L236.824 13.5175V30.2536C236.824 31.7738 237.135 32.9785 237.757 33.8676C238.379 34.7568 239.241 35.2013 240.344 35.2013C240.4 35.2013 240.429 35.2874 240.429 35.4595C240.429 35.6316 240.4 35.7176 240.344 35.7176C239.552 35.7176 238.944 35.7033 238.52 35.6746L236.231 35.6316L233.602 35.6746C233.121 35.7033 232.429 35.7176 231.524 35.7176C231.439 35.7176 231.397 35.6316 231.397 35.4595C231.397 35.2874 231.439 35.2013 231.524 35.2013C232.768 35.2013 233.743 34.7568 234.45 33.8676C235.185 32.9785 235.552 31.7738 235.552 30.2536V12.0547C234.619 11.0221 233.814 10.3194 233.135 9.94654C232.485 9.54499 231.807 9.34421 231.1 9.34421C231.044 9.34421 231.015 9.25817 231.015 9.08607C231.015 8.91398 231.044 8.82793 231.1 8.82793L232.881 8.87096C233.248 8.89964 233.786 8.91398 234.492 8.91398L237.715 8.87096C238.111 8.84227 238.591 8.82793 239.156 8.82793C239.383 8.82793 239.552 8.8853 239.665 9.00002C239.778 9.11475 239.976 9.35855 240.259 9.73142C240.74 10.3911 241.079 10.8357 241.277 11.0652L255.948 28.2315V14.3349C255.948 12.7861 255.637 11.5671 255.015 10.6779C254.393 9.78879 253.531 9.34421 252.428 9.34421C252.372 9.34421 252.344 9.25817 252.344 9.08607C252.344 8.91398 252.372 8.82793 252.428 8.82793L254.252 8.87096C255.156 8.92832 255.919 8.957 256.541 8.957C257.107 8.957 257.898 8.92832 258.916 8.87096L260.824 8.82793Z" fill="white"/>
<path d="M119.795 66.1555C119.839 66.1555 119.862 66.2237 119.862 66.3601C119.862 66.4965 119.839 66.5646 119.795 66.5646H113.813C113.321 66.5646 112.402 65.6668 111.058 63.8712C109.714 62.0529 108.09 59.5185 106.186 56.2682C106.007 56.291 105.749 56.3023 105.413 56.3023C104.539 56.3023 103.923 56.291 103.565 56.2682V63.803C103.565 64.5076 103.621 65.019 103.733 65.3373C103.845 65.6555 104.058 65.8714 104.371 65.985C104.707 66.0987 105.234 66.1555 105.951 66.1555C105.995 66.1555 106.018 66.2237 106.018 66.3601C106.018 66.4965 105.995 66.5646 105.951 66.5646C105.211 66.5646 104.629 66.5533 104.203 66.5306L101.65 66.4965L99.1967 66.5306C98.7487 66.5533 98.1439 66.5646 97.3822 66.5646C97.315 66.5646 97.2814 66.4965 97.2814 66.3601C97.2814 66.2237 97.315 66.1555 97.3822 66.1555C98.0991 66.1555 98.6143 66.0987 98.9279 65.985C99.2639 65.8714 99.488 65.6555 99.6 65.3373C99.7344 64.9963 99.8016 64.4849 99.8016 63.803V48.0175C99.8016 47.3356 99.7456 46.8355 99.6336 46.5173C99.5216 46.1991 99.2975 45.9832 98.9615 45.8695C98.6255 45.7332 98.1103 45.665 97.4159 45.665C97.3711 45.665 97.3486 45.5968 97.3486 45.4604C97.3486 45.324 97.3711 45.2558 97.4159 45.2558L99.1967 45.2899C100.227 45.3354 101.045 45.3581 101.65 45.3581C102.411 45.3581 103.207 45.324 104.035 45.2558C104.327 45.2331 104.685 45.2104 105.111 45.1877C105.559 45.1649 106.051 45.1536 106.589 45.1536C108.628 45.1536 110.207 45.54 111.327 46.3128C112.447 47.0628 113.007 48.1197 113.007 49.4835C113.007 50.7336 112.671 51.8701 111.999 52.8929C111.327 53.893 110.431 54.6999 109.311 55.3136C111.103 58.0411 112.604 60.1777 113.813 61.7233C115.023 63.2689 116.098 64.394 117.039 65.0986C117.98 65.8032 118.898 66.1555 119.795 66.1555ZM103.565 55.3136C104.103 55.4045 104.752 55.45 105.514 55.45C106.813 55.45 107.743 55.0863 108.303 54.359C108.885 53.6089 109.176 52.4156 109.176 50.7791C109.176 48.9153 108.908 47.6311 108.37 46.9265C107.832 46.2218 107.06 45.8695 106.051 45.8695C105.155 45.8695 104.517 46.04 104.136 46.3809C103.755 46.7219 103.565 47.2901 103.565 48.0856V55.3136Z" fill="white"/>
<path d="M136.133 61.1437C136.133 61.0982 136.178 61.0755 136.267 61.0755C136.335 61.0755 136.391 61.0982 136.435 61.1437C136.503 61.1664 136.536 61.1891 136.536 61.2119C136.312 62.9848 136.2 64.5985 136.2 66.0532C136.2 66.2351 136.167 66.3714 136.099 66.4624C136.032 66.5306 135.898 66.5646 135.696 66.5646H120.844C120.777 66.5646 120.743 66.4965 120.743 66.3601C120.743 66.2237 120.777 66.1555 120.844 66.1555C121.561 66.1555 122.076 66.0987 122.39 65.985C122.726 65.8714 122.95 65.6555 123.062 65.3373C123.174 64.9963 123.23 64.4849 123.23 63.803V48.0175C123.23 47.3356 123.174 46.8355 123.062 46.5173C122.95 46.1991 122.726 45.9832 122.39 45.8695C122.054 45.7332 121.539 45.665 120.844 45.665C120.777 45.665 120.743 45.5968 120.743 45.4604C120.743 45.324 120.777 45.2558 120.844 45.2558H135.091C135.315 45.2558 135.427 45.3581 135.427 45.5627L135.495 50.0972C135.495 50.1427 135.427 50.1768 135.293 50.1995C135.181 50.2222 135.114 50.1995 135.091 50.1313C134.733 48.813 134.128 47.8356 133.277 47.1992C132.426 46.5628 131.306 46.2446 129.917 46.2446H128.909C128.237 46.2446 127.744 46.3923 127.43 46.6878C127.117 46.9833 126.96 47.4379 126.96 48.0516V55.0068H129.749C131.048 55.0068 132.045 54.7795 132.739 54.3249C133.434 53.8703 133.781 53.2339 133.781 52.4156C133.781 52.3474 133.837 52.3133 133.949 52.3133C134.083 52.3133 134.151 52.3474 134.151 52.4156L134.117 55.4841L134.151 57.1206C134.195 57.8934 134.218 58.5071 134.218 58.9617C134.218 59.0071 134.151 59.0299 134.016 59.0299C133.882 59.0299 133.815 59.0071 133.815 58.9617C133.815 58.0298 133.456 57.3024 132.739 56.7796C132.045 56.2341 131.037 55.9614 129.715 55.9614H126.96V63.6667C126.96 64.3258 127.083 64.8145 127.329 65.1327C127.576 65.4509 127.968 65.61 128.505 65.61H129.614C131.362 65.61 132.762 65.2463 133.815 64.519C134.867 63.7917 135.64 62.6665 136.133 61.1437Z" fill="white"/>
<path d="M145.265 63.6667C145.265 64.394 145.343 64.9281 145.5 65.2691C145.657 65.5873 145.948 65.8146 146.373 65.951C146.821 66.0873 147.527 66.1555 148.49 66.1555C148.557 66.1555 148.591 66.2237 148.591 66.3601C148.591 66.4965 148.557 66.5646 148.49 66.5646C147.572 66.5646 146.855 66.5533 146.34 66.5306L143.416 66.4965L140.964 66.5306C140.516 66.5533 139.911 66.5646 139.149 66.5646C139.082 66.5646 139.048 66.4965 139.048 66.3601C139.048 66.2237 139.082 66.1555 139.149 66.1555C139.866 66.1555 140.381 66.0987 140.695 65.985C141.031 65.8714 141.255 65.6555 141.367 65.3373C141.479 64.9963 141.535 64.4849 141.535 63.803V48.0175C141.535 47.3356 141.479 46.8355 141.367 46.5173C141.255 46.1991 141.031 45.9832 140.695 45.8695C140.359 45.7332 139.843 45.665 139.149 45.665C139.082 45.665 139.048 45.5968 139.048 45.4604C139.048 45.324 139.082 45.2558 139.149 45.2558L140.93 45.2899C141.96 45.3354 142.778 45.3581 143.383 45.3581C143.92 45.3581 144.559 45.324 145.298 45.2558C145.589 45.2331 145.959 45.2104 146.407 45.1877C146.855 45.1649 147.37 45.1536 147.953 45.1536C150.238 45.1536 152.041 45.6422 153.363 46.6196C154.684 47.5742 155.345 49.063 155.345 51.0859C155.345 52.4952 154.987 53.6884 154.27 54.6658C153.553 55.6432 152.623 56.3819 151.481 56.8819C150.361 57.382 149.207 57.632 148.02 57.632C147.415 57.632 146.889 57.5752 146.441 57.4615C146.396 57.4615 146.373 57.4047 146.373 57.291C146.373 57.2229 146.385 57.1547 146.407 57.0865C146.452 57.0183 146.497 56.9956 146.541 57.0183C146.877 57.1092 147.258 57.1547 147.684 57.1547C148.714 57.1547 149.566 56.666 150.238 55.6886C150.932 54.7113 151.279 53.3248 151.279 51.5292C151.279 49.7335 150.898 48.347 150.137 47.3697C149.398 46.3923 148.311 45.9036 146.877 45.9036C146.25 45.9036 145.825 46.0514 145.601 46.3469C145.377 46.6423 145.265 47.2219 145.265 48.0856V63.6667Z" fill="white"/>
<path d="M168.878 66.9738C166.794 66.9738 164.935 66.4851 163.3 65.5077C161.687 64.5076 160.432 63.1666 159.536 61.4846C158.663 59.7799 158.226 57.9275 158.226 55.9273C158.226 53.5862 158.808 51.586 159.973 49.9267C161.138 48.2448 162.628 46.9833 164.442 46.1423C166.279 45.3013 168.15 44.8808 170.054 44.8808C172.182 44.8808 174.052 45.3922 175.665 46.415C177.278 47.4151 178.51 48.7448 179.361 50.404C180.235 52.0633 180.672 53.8248 180.672 55.6886C180.672 57.757 180.134 59.6549 179.059 61.3823C177.984 63.1098 176.539 64.4735 174.724 65.4736C172.932 66.4737 170.983 66.9738 168.878 66.9738ZM169.986 66.1214C171.241 66.1214 172.361 65.7578 173.347 65.0304C174.355 64.2803 175.139 63.2007 175.699 61.7915C176.259 60.3595 176.539 58.6548 176.539 56.6774C176.539 54.5863 176.225 52.7224 175.598 51.0859C174.971 49.4267 174.063 48.1311 172.876 47.1992C171.689 46.2673 170.3 45.8013 168.71 45.8013C166.671 45.8013 165.103 46.5855 164.005 48.1538C162.908 49.6994 162.359 51.8701 162.359 54.6658C162.359 56.8706 162.684 58.848 163.333 60.5982C164.005 62.3256 164.913 63.678 166.055 64.6554C167.22 65.6327 168.53 66.1214 169.986 66.1214Z" fill="white"/>
<path d="M206.096 66.1555C206.14 66.1555 206.163 66.2237 206.163 66.3601C206.163 66.4965 206.14 66.5646 206.096 66.5646H200.114C199.622 66.5646 198.703 65.6668 197.359 63.8712C196.015 62.0529 194.391 59.5185 192.487 56.2682C192.308 56.291 192.05 56.3023 191.714 56.3023C190.84 56.3023 190.224 56.291 189.866 56.2682V63.803C189.866 64.5076 189.922 65.019 190.034 65.3373C190.146 65.6555 190.359 65.8714 190.672 65.985C191.008 66.0987 191.535 66.1555 192.252 66.1555C192.296 66.1555 192.319 66.2237 192.319 66.3601C192.319 66.4965 192.296 66.5646 192.252 66.5646C191.512 66.5646 190.93 66.5533 190.504 66.5306L187.951 66.4965L185.498 66.5306C185.05 66.5533 184.445 66.5646 183.683 66.5646C183.616 66.5646 183.582 66.4965 183.582 66.3601C183.582 66.2237 183.616 66.1555 183.683 66.1555C184.4 66.1555 184.915 66.0987 185.229 65.985C185.565 65.8714 185.789 65.6555 185.901 65.3373C186.035 64.9963 186.103 64.4849 186.103 63.803V48.0175C186.103 47.3356 186.047 46.8355 185.935 46.5173C185.823 46.1991 185.599 45.9832 185.263 45.8695C184.927 45.7332 184.411 45.665 183.717 45.665C183.672 45.665 183.65 45.5968 183.65 45.4604C183.65 45.324 183.672 45.2558 183.717 45.2558L185.498 45.2899C186.528 45.3354 187.346 45.3581 187.951 45.3581C188.712 45.3581 189.508 45.324 190.336 45.2558C190.628 45.2331 190.986 45.2104 191.412 45.1877C191.86 45.1649 192.352 45.1536 192.89 45.1536C194.929 45.1536 196.508 45.54 197.628 46.3128C198.748 47.0628 199.308 48.1197 199.308 49.4835C199.308 50.7336 198.972 51.8701 198.3 52.8929C197.628 53.893 196.732 54.6999 195.612 55.3136C197.404 58.0411 198.905 60.1777 200.114 61.7233C201.324 63.2689 202.399 64.394 203.34 65.0986C204.281 65.8032 205.199 66.1555 206.096 66.1555ZM189.866 55.3136C190.404 55.4045 191.053 55.45 191.815 55.45C193.114 55.45 194.044 55.0863 194.604 54.359C195.186 53.6089 195.477 52.4156 195.477 50.7791C195.477 48.9153 195.209 47.6311 194.671 46.9265C194.133 46.2218 193.361 45.8695 192.352 45.8695C191.456 45.8695 190.818 46.04 190.437 46.3809C190.056 46.7219 189.866 47.2901 189.866 48.0856V55.3136Z" fill="white"/>
<path d="M210.471 46.04C207.805 46.04 205.89 47.8015 204.725 51.3246C204.703 51.3928 204.635 51.4269 204.523 51.4269C204.411 51.4041 204.355 51.3587 204.355 51.2905C204.445 50.3813 204.546 49.2108 204.658 47.7788C204.77 46.3241 204.826 45.2331 204.826 44.5058C204.826 44.3921 204.882 44.3353 204.994 44.3353C205.128 44.3353 205.195 44.3921 205.195 44.5058C205.195 45.0058 205.834 45.2558 207.111 45.2558C209.037 45.324 211.288 45.3581 213.865 45.3581C215.186 45.3581 216.586 45.3354 218.065 45.2899L220.35 45.2558C221.201 45.2558 221.817 45.199 222.198 45.0854C222.601 44.9717 222.859 44.7444 222.971 44.4035C222.993 44.3126 223.06 44.2671 223.172 44.2671C223.307 44.2671 223.374 44.3126 223.374 44.4035C223.307 45.0854 223.228 46.1764 223.139 47.6765C223.071 49.1767 223.038 50.3813 223.038 51.2905C223.038 51.3587 222.982 51.3928 222.87 51.3928C222.758 51.3928 222.691 51.3587 222.668 51.2905C222.332 49.5403 221.705 48.2334 220.786 47.3697C219.868 46.4832 218.737 46.04 217.393 46.04C216.743 46.04 216.306 46.1877 216.082 46.4832C215.881 46.756 215.78 47.2901 215.78 48.0856V63.803C215.78 64.5076 215.847 65.019 215.981 65.3373C216.116 65.6555 216.374 65.8714 216.754 65.985C217.135 66.0987 217.74 66.1555 218.569 66.1555C218.636 66.1555 218.67 66.2237 218.67 66.3601C218.67 66.4965 218.636 66.5646 218.569 66.5646C217.762 66.5646 217.124 66.5533 216.654 66.5306L213.865 66.4965L211.143 66.5306C210.672 66.5533 210.023 66.5646 209.194 66.5646C209.127 66.5646 209.093 66.4965 209.093 66.3601C209.093 66.2237 209.127 66.1555 209.194 66.1555C210 66.1555 210.594 66.0987 210.975 65.985C211.378 65.8714 211.647 65.6555 211.781 65.3373C211.938 64.9963 212.016 64.4849 212.016 63.803V48.0175C212.016 47.2447 211.916 46.7219 211.714 46.4491C211.512 46.1764 211.098 46.04 210.471 46.04Z" fill="white"/>
<path d="M241.269 61.1437C241.269 61.0982 241.314 61.0755 241.404 61.0755C241.471 61.0755 241.527 61.0982 241.572 61.1437C241.639 61.1664 241.673 61.1891 241.673 61.2119C241.449 62.9848 241.337 64.5985 241.337 66.0532C241.337 66.2351 241.303 66.3714 241.236 66.4624C241.169 66.5306 241.034 66.5646 240.832 66.5646H225.981C225.913 66.5646 225.88 66.4965 225.88 66.3601C225.88 66.2237 225.913 66.1555 225.981 66.1555C226.697 66.1555 227.213 66.0987 227.526 65.985C227.862 65.8714 228.086 65.6555 228.198 65.3373C228.31 64.9963 228.366 64.4849 228.366 63.803V48.0175C228.366 47.3356 228.31 46.8355 228.198 46.5173C228.086 46.1991 227.862 45.9832 227.526 45.8695C227.19 45.7332 226.675 45.665 225.981 45.665C225.913 45.665 225.88 45.5968 225.88 45.4604C225.88 45.324 225.913 45.2558 225.981 45.2558H240.228C240.452 45.2558 240.564 45.3581 240.564 45.5627L240.631 50.0972C240.631 50.1427 240.564 50.1768 240.429 50.1995C240.317 50.2222 240.25 50.1995 240.228 50.1313C239.869 48.813 239.264 47.8356 238.413 47.1992C237.562 46.5628 236.442 46.2446 235.053 46.2446H234.045C233.373 46.2446 232.88 46.3923 232.566 46.6878C232.253 46.9833 232.096 47.4379 232.096 48.0516V55.0068H234.885C236.184 55.0068 237.181 54.7795 237.876 54.3249C238.57 53.8703 238.917 53.2339 238.917 52.4156C238.917 52.3474 238.973 52.3133 239.085 52.3133C239.22 52.3133 239.287 52.3474 239.287 52.4156L239.253 55.4841L239.287 57.1206C239.332 57.8934 239.354 58.5071 239.354 58.9617C239.354 59.0071 239.287 59.0299 239.152 59.0299C239.018 59.0299 238.951 59.0071 238.951 58.9617C238.951 58.0298 238.592 57.3024 237.876 56.7796C237.181 56.2341 236.173 55.9614 234.851 55.9614H232.096V63.6667C232.096 64.3258 232.219 64.8145 232.466 65.1327C232.712 65.4509 233.104 65.61 233.642 65.61H234.751C236.498 65.61 237.898 65.2463 238.951 64.519C240.004 63.7917 240.776 62.6665 241.269 61.1437Z" fill="white"/>
<path d="M266.933 66.1555C266.978 66.1555 267 66.2237 267 66.3601C267 66.4965 266.978 66.5646 266.933 66.5646H260.952C260.459 66.5646 259.54 65.6668 258.196 63.8712C256.852 62.0529 255.228 59.5185 253.324 56.2682C253.145 56.291 252.887 56.3023 252.551 56.3023C251.678 56.3023 251.062 56.291 250.703 56.2682V63.803C250.703 64.5076 250.759 65.019 250.871 65.3373C250.983 65.6555 251.196 65.8714 251.51 65.985C251.846 66.0987 252.372 66.1555 253.089 66.1555C253.134 66.1555 253.156 66.2237 253.156 66.3601C253.156 66.4965 253.134 66.5646 253.089 66.5646C252.35 66.5646 251.767 66.5533 251.342 66.5306L248.788 66.4965L246.335 66.5306C245.887 66.5533 245.282 66.5646 244.521 66.5646C244.453 66.5646 244.42 66.4965 244.42 66.3601C244.42 66.2237 244.453 66.1555 244.521 66.1555C245.237 66.1555 245.753 66.0987 246.066 65.985C246.402 65.8714 246.626 65.6555 246.738 65.3373C246.873 64.9963 246.94 64.4849 246.94 63.803V48.0175C246.94 47.3356 246.884 46.8355 246.772 46.5173C246.66 46.1991 246.436 45.9832 246.1 45.8695C245.764 45.7332 245.249 45.665 244.554 45.665C244.509 45.665 244.487 45.5968 244.487 45.4604C244.487 45.324 244.509 45.2558 244.554 45.2558L246.335 45.2899C247.365 45.3354 248.183 45.3581 248.788 45.3581C249.55 45.3581 250.345 45.324 251.174 45.2558C251.465 45.2331 251.823 45.2104 252.249 45.1877C252.697 45.1649 253.19 45.1536 253.727 45.1536C255.766 45.1536 257.345 45.54 258.465 46.3128C259.585 47.0628 260.145 48.1197 260.145 49.4835C260.145 50.7336 259.809 51.8701 259.137 52.8929C258.465 53.893 257.569 54.6999 256.449 55.3136C258.241 58.0411 259.742 60.1777 260.952 61.7233C262.161 63.2689 263.237 64.394 264.177 65.0986C265.118 65.8032 266.037 66.1555 266.933 66.1555ZM250.703 55.3136C251.241 55.4045 251.89 55.45 252.652 55.45C253.951 55.45 254.881 55.0863 255.441 54.359C256.023 53.6089 256.315 52.4156 256.315 50.7791C256.315 48.9153 256.046 47.6311 255.508 46.9265C254.971 46.2218 254.198 45.8695 253.19 45.8695C252.294 45.8695 251.655 46.04 251.274 46.3809C250.894 46.7219 250.703 47.2901 250.703 48.0856V55.3136Z" fill="white"/>
<path d="M108.332 90.9176V81.4716H113.915V82.4863H109.46V85.678H113.496V86.6927H109.46V90.9176H108.332Z" fill="white"/>
<path d="M115.065 90.9176H113.883L117.301 81.4716H118.465L121.883 90.9176H120.701L117.919 82.966H117.847L115.065 90.9176ZM115.501 87.2277H120.265V88.2424H115.501V87.2277Z" fill="white"/>
<path d="M128.424 83.8331C128.37 83.3657 128.149 83.0029 127.761 82.7446C127.373 82.4863 126.897 82.3571 126.333 82.3571C125.921 82.3571 125.561 82.4248 125.251 82.5601C124.945 82.6954 124.706 82.8814 124.533 83.1182C124.364 83.3549 124.279 83.624 124.279 83.9253C124.279 84.1775 124.338 84.3942 124.456 84.5757C124.577 84.754 124.732 84.9031 124.92 85.023C125.107 85.1399 125.304 85.2367 125.511 85.3136C125.717 85.3874 125.906 85.4474 126.079 85.4935L127.024 85.7518C127.267 85.8164 127.536 85.9055 127.833 86.0193C128.133 86.1331 128.42 86.2884 128.693 86.4851C128.968 86.6789 129.196 86.9279 129.374 87.2323C129.553 87.5368 129.643 87.9103 129.643 88.3531C129.643 88.8636 129.511 89.3248 129.247 89.7368C128.986 90.1489 128.605 90.4763 128.102 90.7192C127.602 90.9622 126.994 91.0836 126.279 91.0836C125.612 91.0836 125.035 90.9745 124.547 90.7561C124.062 90.5378 123.68 90.2334 123.401 89.8429C123.126 89.4524 122.97 88.9988 122.933 88.4823H124.097C124.127 88.839 124.245 89.1341 124.451 89.3678C124.661 89.5984 124.924 89.7706 125.242 89.8844C125.564 89.9951 125.909 90.0505 126.279 90.0505C126.709 90.0505 127.095 89.9797 127.438 89.8383C127.78 89.6938 128.052 89.4939 128.252 89.2387C128.452 88.9804 128.552 88.6791 128.552 88.3347C128.552 88.021 128.465 87.7658 128.292 87.569C128.12 87.3722 127.892 87.2123 127.611 87.0894C127.329 86.9664 127.024 86.8587 126.697 86.7665L125.551 86.4344C124.824 86.2222 124.248 85.9194 123.824 85.5258C123.4 85.1322 123.188 84.6172 123.188 83.9807C123.188 83.4518 123.329 82.9906 123.61 82.597C123.895 82.2003 124.277 81.8928 124.756 81.6745C125.238 81.4531 125.776 81.3424 126.37 81.3424C126.97 81.3424 127.503 81.4516 127.97 81.6699C128.436 81.8852 128.806 82.1803 129.079 82.5555C129.355 82.9306 129.5 83.3565 129.515 83.8331H128.424Z" fill="white"/>
<path d="M130.987 82.4863V81.4716H137.969V82.4863H135.042V90.9176H133.914V82.4863H130.987Z" fill="white"/>
<path d="M143.691 90.9176H142.509L145.927 81.4716H147.091L150.509 90.9176H149.328L146.546 82.966H146.473L143.691 90.9176ZM144.127 87.2277H148.891V88.2424H144.127V87.2277Z" fill="white"/>
<path d="M159.342 81.4716V90.9176H158.251L153.178 83.501H153.087V90.9176H151.96V81.4716H153.05L158.142 88.9066H158.233V81.4716H159.342Z" fill="white"/>
<path d="M164.47 90.9176H161.597V81.4716H164.598C165.501 81.4716 166.273 81.6607 166.916 82.0389C167.558 82.414 168.051 82.9537 168.393 83.6578C168.736 84.3589 168.907 85.1983 168.907 86.1761C168.907 87.1601 168.734 88.0072 168.389 88.7175C168.043 89.4247 167.54 89.969 166.88 90.3503C166.219 90.7285 165.416 90.9176 164.47 90.9176ZM162.725 89.9029H164.398C165.167 89.9029 165.805 89.7522 166.311 89.4509C166.817 89.1495 167.195 88.7206 167.443 88.164C167.692 87.6075 167.816 86.9448 167.816 86.1761C167.816 85.4136 167.693 84.7571 167.448 84.2067C167.202 83.6532 166.836 83.2289 166.348 82.9337C165.86 82.6354 165.252 82.4863 164.525 82.4863H162.725V89.9029Z" fill="white"/>
<path d="M181.889 84.4235H180.762C180.695 84.0944 180.579 83.8054 180.412 83.5563C180.248 83.3073 180.048 83.0982 179.812 82.9291C179.579 82.7569 179.32 82.6277 179.035 82.5416C178.75 82.4555 178.453 82.4125 178.144 82.4125C177.58 82.4125 177.069 82.557 176.612 82.846C176.157 83.1351 175.795 83.561 175.525 84.1236C175.259 84.6863 175.125 85.3767 175.125 86.1946C175.125 87.0125 175.259 87.7028 175.525 88.2655C175.795 88.8282 176.157 89.2541 176.612 89.5431C177.069 89.8321 177.58 89.9767 178.144 89.9767C178.453 89.9767 178.75 89.9336 179.035 89.8475C179.32 89.7614 179.579 89.6338 179.812 89.4647C180.048 89.2925 180.248 89.0819 180.412 88.8328C180.579 88.5807 180.695 88.2916 180.762 87.9657H181.889C181.805 88.4484 181.65 88.8805 181.426 89.2617C181.201 89.643 180.923 89.9674 180.589 90.2349C180.256 90.4994 179.882 90.7008 179.467 90.8392C179.054 90.9775 178.613 91.0467 178.144 91.0467C177.35 91.0467 176.644 90.8499 176.025 90.4563C175.407 90.0628 174.921 89.5031 174.566 88.7775C174.212 88.0518 174.034 87.1908 174.034 86.1946C174.034 85.1983 174.212 84.3374 174.566 83.6117C174.921 82.886 175.407 82.3264 176.025 81.9328C176.644 81.5392 177.35 81.3424 178.144 81.3424C178.613 81.3424 179.054 81.4116 179.467 81.55C179.882 81.6884 180.256 81.8913 180.589 82.1588C180.923 82.4232 181.201 82.7461 181.426 83.1274C181.65 83.5056 181.805 83.9376 181.889 84.4235Z" fill="white"/>
<path d="M191.566 86.1946C191.566 87.1908 191.389 88.0518 191.034 88.7775C190.68 89.5031 190.193 90.0628 189.575 90.4563C188.957 90.8499 188.251 91.0467 187.457 91.0467C186.663 91.0467 185.957 90.8499 185.338 90.4563C184.72 90.0628 184.234 89.5031 183.879 88.7775C183.525 88.0518 183.347 87.1908 183.347 86.1946C183.347 85.1983 183.525 84.3374 183.879 83.6117C184.234 82.886 184.72 82.3264 185.338 81.9328C185.957 81.5392 186.663 81.3424 187.457 81.3424C188.251 81.3424 188.957 81.5392 189.575 81.9328C190.193 82.3264 190.68 82.886 191.034 83.6117C191.389 84.3374 191.566 85.1983 191.566 86.1946ZM190.475 86.1946C190.475 85.3767 190.34 84.6863 190.07 84.1236C189.804 83.561 189.442 83.1351 188.984 82.846C188.529 82.557 188.02 82.4125 187.457 82.4125C186.893 82.4125 186.382 82.557 185.925 82.846C185.47 83.1351 185.108 83.561 184.838 84.1236C184.572 84.6863 184.438 85.3767 184.438 86.1946C184.438 87.0125 184.572 87.7028 184.838 88.2655C185.108 88.8282 185.47 89.2541 185.925 89.5431C186.382 89.8321 186.893 89.9767 187.457 89.9767C188.02 89.9767 188.529 89.8321 188.984 89.5431C189.442 89.2541 189.804 88.8282 190.07 88.2655C190.34 87.7028 190.475 87.0125 190.475 86.1946Z" fill="white"/>
<path d="M200.844 81.4716V90.9176H199.753L194.68 83.501H194.589V90.9176H193.462V81.4716H194.552L199.644 88.9066H199.735V81.4716H200.844Z" fill="white"/>
<path d="M203.481 81.4716L206.245 89.4232H206.354L209.118 81.4716H210.3L206.881 90.9176H205.718L202.299 81.4716H203.481Z" fill="white"/>
<path d="M211.75 90.9176V81.4716H217.368V82.4863H212.877V85.678H217.077V86.6927H212.877V89.9029H217.441V90.9176H211.75Z" fill="white"/>
<path d="M226.782 81.4716V90.9176H225.691L220.618 83.501H220.528V90.9176H219.4V81.4716H220.491L225.582 88.9066H225.673V81.4716H226.782Z" fill="white"/>
<path d="M230.166 81.4716V90.9176H229.038V81.4716H230.166Z" fill="white"/>
<path d="M232.426 90.9176V81.4716H238.044V82.4863H233.553V85.678H237.753V86.6927H233.553V89.9029H238.117V90.9176H232.426Z" fill="white"/>
<path d="M247.458 81.4716V90.9176H246.367L241.294 83.501H241.204V90.9176H240.076V81.4716H241.167L246.258 88.9066H246.349V81.4716H247.458Z" fill="white"/>
<path d="M249.205 82.4863V81.4716H256.187V82.4863H253.26V90.9176H252.133V82.4863H249.205Z" fill="white"/>
</svg>
