<svg xmlns="http://www.w3.org/2000/svg" width="52" height="52" viewBox="0 0 52 52" fill="none">
  <path d="M26 52C40.3593 52 52 40.3595 52 26C52 11.6406 40.3593 0 26 0C11.6406 0 0 11.6406 0 26C0 40.3595 11.6406 52 26 52Z" fill="#FBB51F"/>
  <path d="M26 12.8164C20.618 12.8164 16.25 17.1844 16.25 22.5663C16.25 27.8443 20.384 32.1343 25.87 32.2903H26.104H26.286H26.338C31.59 32.1083 35.724 27.8443 35.75 22.5663C35.75 17.1844 31.382 12.8164 26 12.8164Z" fill="#133157"/>
  <path d="M43.6301 45.1081C39.0021 49.3721 32.8141 51.9981 26.0021 51.9981C19.1901 51.9981 13.0021 49.3721 8.37411 45.1081C8.99812 42.7421 10.6881 40.5841 13.1581 38.9201C20.2561 34.1881 31.8001 34.1881 38.8461 38.9201C41.3421 40.5841 43.0061 42.7421 43.6301 45.1081Z" fill="#133157"/>
</svg>